<?xml version="1.0" encoding="UTF-8" standalone="no"?>
<!DOCTYPE svg PUBLIC "-//W3C//DTD SVG 1.1//EN" "http://www.w3.org/Graphics/SVG/1.1/DTD/svg11.dtd">
<svg width="100%" height="100%" viewBox="0 0 326 193" version="1.1" xmlns="http://www.w3.org/2000/svg" xmlns:xlink="http://www.w3.org/1999/xlink" xml:space="preserve" xmlns:serif="http://www.serif.com/" style="fill-rule:evenodd;clip-rule:evenodd;stroke-linecap:round;stroke-linejoin:round;stroke-miterlimit:1.5;">
    <g transform="matrix(1,0,0,1,-857.077,-379.454)">
        <g transform="matrix(0.872289,0,0,0.894083,-240.258,-292.453)">
            <path d="M1605.11,915.14L1613.18,959.531L1578.21,946.079" style="fill:none;stroke:white;stroke-opacity:0.6;stroke-width:7.08px;"/>
        </g>
        <g transform="matrix(0.983138,0,0,0.966785,154.518,245.807)">
            <path d="M942.934,144.463C942.934,144.463 1060.24,158.454 1037.64,236.475" style="fill:none;stroke:white;stroke-opacity:0.6;stroke-width:6.41px;"/>
        </g>
        <g transform="matrix(0.971412,0,0,0.968123,159.433,241.469)">
            <path d="M749.226,164.91C749.226,164.91 669.052,269.298 798.729,290.283" style="fill:none;stroke:white;stroke-opacity:0.6;stroke-width:6.44px;"/>
        </g>
        <g transform="matrix(1.56994,0,0,1.93911,165.843,-974.465)">
            <path d="M497.101,699.778L496.832,700.241C495.368,702.797 494.098,705.352 493.024,707.907L492.804,708.469L492.487,708.298C492.112,705.824 491.242,703.863 489.874,702.414C488.507,700.966 486.855,700.241 484.918,700.241C482.851,700.241 481.126,701.145 479.743,702.951C478.001,705.197 477.13,709.006 477.13,714.377C477.13,719 477.932,722.621 479.535,725.241C481.138,727.862 483.364,729.172 486.212,729.172C488.491,729.172 490.31,728.411 491.669,726.889C493.028,725.368 493.838,723.191 494.098,720.359C494.163,719.675 494.44,719.333 494.928,719.333C495.563,719.333 495.88,719.862 495.88,720.92C495.88,722.499 495.522,724.135 494.806,725.827C493.292,729.408 490.167,731.198 485.431,731.198C481.199,731.198 477.838,729.713 475.348,726.743C472.858,723.772 471.613,719.756 471.613,714.695C471.613,710.023 472.907,706.109 475.494,702.951C478.082,699.794 481.297,698.215 485.138,698.215C486.961,698.215 489.036,698.663 491.364,699.558C492.584,700.03 493.593,700.266 494.391,700.266C495.254,700.266 496.027,700.03 496.71,699.558L497.101,699.778ZM490.021,704.001C488.54,702.813 487.14,702.219 485.822,702.219C481.606,702.219 479.498,706.239 479.498,714.279C479.498,717.942 479.987,720.989 480.963,723.423C481.94,725.856 483.315,727.431 485.089,728.147L485.089,728.391C483.169,728 481.635,726.523 480.487,723.96C479.34,721.396 478.766,718.153 478.766,714.231C478.766,705.816 481.077,701.609 485.7,701.609C487.262,701.609 488.702,702.3 490.021,703.684L490.021,704.001ZM497.98,720.774C497.719,724.81 496.592,727.882 494.598,729.99C492.605,732.098 489.817,733.152 486.237,733.152C483.519,733.152 480.988,732.313 478.644,730.637L478.644,730.442C480.727,731.809 483.242,732.492 486.188,732.492C489.41,732.492 492.039,731.459 494.074,729.392C495.066,728.383 495.799,727.251 496.271,725.998C496.743,724.745 497.06,723.085 497.223,721.018L497.272,720.456L497.98,720.774ZM498.883,700.952L498.615,701.42C496.84,704.472 495.424,707.253 494.367,709.763L493.707,709.443L493.976,708.828C494.79,707.105 495.506,705.677 496.124,704.545L498.077,701.05L498.322,700.61L498.883,700.952Z" style="fill-rule:nonzero;"/>
        </g>
        <g transform="matrix(1.56994,0,0,1.93911,165.843,-974.465)">
            <path d="M501.129,699.021L512.604,699.021L509.284,702.268L509.284,712.815C509.658,712.88 510.097,712.929 510.602,712.961L510.602,702.512L513.263,699.875L513.751,700.315L511.237,702.805L511.237,712.986L512.042,713.059C513.296,713.173 514.508,713.23 515.68,713.23C517.373,713.23 518.829,713.148 520.05,712.986L520.05,701.755L517.072,699.021L528.351,699.021L524.982,702.268L524.982,727.707L527.936,730.344L516.705,730.344L520.05,727.487L520.05,717.136C518.683,717.461 517.275,717.624 515.826,717.624C514.459,717.624 513.043,717.551 511.578,717.404L511.237,717.38L511.237,727.707L515.265,732.346L502.643,732.346L502.008,731.76L513.922,731.76L510.602,728.049L510.602,716.819L511.31,716.867C513.458,717.03 515.013,717.112 515.973,717.112C517.535,717.112 518.895,716.9 520.05,716.477L520.05,715.598C518.52,715.826 516.738,715.94 514.703,715.94C513.613,715.94 512.815,715.915 512.311,715.866L509.845,715.647C509.747,715.63 509.56,715.614 509.284,715.598L509.284,727.707L512.409,730.344L501.129,730.344L504.401,727.487L504.401,716.819C503.034,716.819 501.943,717.356 501.129,718.43L500.617,718.186C501.561,716.998 502.822,716.338 504.401,716.208L504.401,715.305C502.578,715.305 501.137,715.997 500.079,717.38L499.713,717.136C500.673,714.792 502.236,713.409 504.401,712.986L504.401,701.999L501.129,699.021ZM529.376,700.388L526.886,702.805L526.886,727.767L530.939,732.346L518.268,732.346L517.658,731.76L529.547,731.76L526.276,728.061L526.276,702.561L528.986,699.875L529.376,700.388Z" style="fill-rule:nonzero;"/>
        </g>
        <g transform="matrix(1.56994,0,0,1.93911,165.843,-974.465)">
            <path d="M531.94,699.021L543.512,699.021L540.241,702.341L540.241,727.756L543.317,730.344L531.94,730.344L535.333,727.536L535.333,702.072L531.94,699.021ZM544.611,700.412L542.12,702.878L542.12,727.816L546.222,732.346L533.527,732.346L532.916,731.76L544.782,731.76L541.437,728.061L541.437,702.658L544.196,699.924L544.611,700.412Z" style="fill-rule:nonzero;"/>
        </g>
        <g transform="matrix(1.56994,0,0,1.93911,165.843,-974.465)">
            <path d="M574.445,699.021C574.298,699.297 574.201,699.483 574.152,699.581L572.492,702.502C571.922,703.541 571.393,704.839 570.905,706.398L570.856,706.519L570.612,706.345L570.538,706.022C570.066,704.132 569.395,702.822 568.524,702.093C567.653,701.363 566.323,700.998 564.533,700.998C563.8,700.998 563.068,701.031 562.335,701.096L562.042,701.096L562.042,727.683L564.923,730.344L553.766,730.344L557.184,727.487L557.184,703.111L555.451,703.073C553.774,703.073 552.582,703.41 551.874,704.084C551.166,704.757 550.747,705.942 550.617,707.639L549.982,707.639C550.161,705.698 550.653,704.346 551.459,703.583C552.264,702.82 553.595,702.439 555.451,702.439L556.915,702.464L557.184,702.464L557.184,701.245C556.354,701.146 555.564,701.096 554.816,701.096C552.716,701.096 551.202,701.531 550.275,702.402C549.347,703.273 548.834,704.745 548.737,706.818L548.444,706.818C547.744,704.56 546.661,702.042 545.197,699.264L545.05,699.021L574.445,699.021ZM575.983,700.901C574.86,702.333 573.68,704.709 572.443,708.029L572.345,708.274L571.808,707.81L571.881,707.59C573.086,704.221 574.249,701.877 575.372,700.559L575.494,700.412L575.983,700.901ZM569.464,704.367C568.211,703.554 566.746,703.147 565.07,703.147C564.695,703.147 564.305,703.171 563.898,703.22L563.995,727.816L567.877,732.346L555.402,732.346L554.84,731.76L566.534,731.76L563.263,728.012L563.263,702.512L564.581,702.487C566.16,702.487 567.279,702.614 567.938,702.866C568.597,703.118 569.106,703.619 569.464,704.367Z" style="fill-rule:nonzero;"/>
        </g>
        <g transform="matrix(1.56994,0,0,1.93911,222.051,-890.05)">
            <path d="M494.367,699.289C493.52,700.429 492.845,701.617 492.34,702.854C491.347,705.295 490.688,706.793 490.363,707.346L490.241,707.492C490.175,707.313 490.127,707.175 490.094,707.077C489.638,705.612 489.264,704.595 488.971,704.026C488.678,703.456 488.239,702.911 487.653,702.39C486.172,701.071 484.487,700.412 482.599,700.412C480.857,700.412 479.409,700.897 478.253,701.865C477.098,702.833 476.52,704.05 476.52,705.515C476.52,708.249 478.579,710.113 482.697,711.106L486.823,712.107C492.698,713.523 495.636,716.623 495.636,721.408C495.636,724.078 494.631,726.32 492.621,728.134C490.611,729.949 488.125,730.857 485.162,730.857C483.307,730.857 481.232,730.572 478.937,730.002L476.08,729.294C474.925,729.017 473.973,728.879 473.224,728.879C472.231,728.879 471.206,729.196 470.148,729.831L469.952,729.489C471.971,726.446 473.387,723.549 474.201,720.798L474.64,720.92C474.982,723.475 476.007,725.461 477.716,726.877C479.425,728.293 481.663,729.001 484.43,729.001C486.611,729.001 488.344,728.497 489.63,727.487C490.916,726.478 491.559,725.119 491.559,723.41C491.559,721.441 490.664,719.813 488.873,718.528C487.588,717.616 484.951,716.77 480.963,715.988C477.887,715.386 475.657,714.385 474.274,712.986C472.89,711.586 472.199,709.641 472.199,707.151C472.199,704.579 473.122,702.492 474.97,700.888C476.817,699.285 479.222,698.484 482.184,698.484C484.088,698.484 486.31,698.825 488.849,699.509C490.037,699.834 490.916,699.997 491.486,699.997C492.283,699.997 493.154,699.721 494.098,699.167L494.367,699.289ZM495.88,700.322L495.66,700.697C494.993,701.848 494.423,702.948 493.951,703.998C492.812,706.448 492.169,707.815 492.023,708.099L491.901,708.274L491.315,708.024L491.412,707.799C491.884,706.699 492.568,705.265 493.463,703.498L495.123,700.2L495.245,700.005L495.88,700.322ZM488.751,705.173C486.961,703.269 485.04,702.317 482.99,702.317C481.753,702.317 480.727,702.675 479.913,703.391C479.1,704.107 478.693,705.018 478.693,706.125C478.693,707.33 479.515,708.567 481.159,709.836L481.354,709.958L481.232,710.154C479.083,709.193 478.009,707.802 478.009,705.979C478.009,704.709 478.465,703.676 479.376,702.878C480.288,702.081 481.476,701.682 482.941,701.682C484.34,701.682 485.565,701.979 486.615,702.573C487.665,703.167 488.434,704.001 488.922,705.075L488.751,705.173ZM494.367,714.865C496.58,716.542 497.687,718.837 497.687,721.75C497.687,724.859 496.482,727.492 494.074,729.648C491.665,731.805 488.735,732.883 485.284,732.883C483.527,732.883 481.94,732.704 480.524,732.346L476.618,731.394C475.706,731.166 474.729,731.052 473.688,731.052C472.76,731.052 471.906,731.239 471.124,731.613L470.831,730.905C471.678,730.515 472.54,730.32 473.419,730.32C474.396,730.32 475.511,730.466 476.764,730.759L480.524,731.662C482.021,732.02 483.6,732.199 485.26,732.199C488.515,732.199 491.286,731.162 493.573,729.087C495.86,727.011 497.003,724.501 497.003,721.555C497.003,719.065 496.124,716.884 494.367,715.012L494.367,714.865ZM476.984,721.897C477.586,724.826 479.197,726.902 481.818,728.122L481.818,728.318C478.79,727.439 476.959,725.339 476.325,722.019L476.984,721.897ZM473.932,713.987L474.762,714.45C475.299,715.411 476.87,716.208 479.474,716.843L483.405,717.82C486.074,718.487 487.852,719.061 488.739,719.541C489.626,720.021 490.257,720.749 490.631,721.726L490.46,721.823C489.728,720.977 488.934,720.359 488.08,719.968C487.225,719.577 485.586,719.097 483.16,718.528C479.645,717.714 477.285,717.01 476.08,716.416C474.876,715.822 474.16,715.012 473.932,713.987Z" style="fill-rule:nonzero;"/>
        </g>
        <g transform="matrix(1.56994,0,0,1.93911,222.051,-890.05)">
            <path d="M499.762,699.021L511.237,699.021L507.916,702.268L507.916,712.815C508.291,712.88 508.73,712.929 509.235,712.961L509.235,702.512L511.896,699.875L512.384,700.315L509.869,702.805L509.869,712.986L510.675,713.059C511.928,713.173 513.141,713.23 514.313,713.23C516.006,713.23 517.462,713.148 518.683,712.986L518.683,701.755L515.704,699.021L526.984,699.021L523.615,702.268L523.615,727.707L526.569,730.344L515.338,730.344L518.683,727.487L518.683,717.136C517.316,717.461 515.908,717.624 514.459,717.624C513.092,717.624 511.676,717.551 510.211,717.404L509.869,717.38L509.869,727.707L513.898,732.346L501.276,732.346L500.641,731.76L512.555,731.76L509.235,728.049L509.235,716.819L509.943,716.867C512.091,717.03 513.645,717.112 514.606,717.112C516.168,717.112 517.527,716.9 518.683,716.477L518.683,715.598C517.153,715.826 515.371,715.94 513.336,715.94C512.246,715.94 511.448,715.915 510.944,715.866L508.478,715.647C508.38,715.63 508.193,715.614 507.916,715.598L507.916,727.707L511.041,730.344L499.762,730.344L503.034,727.487L503.034,716.819C501.666,716.819 500.576,717.356 499.762,718.43L499.249,718.186C500.193,716.998 501.455,716.338 503.034,716.208L503.034,715.305C501.211,715.305 499.77,715.997 498.712,717.38L498.346,717.136C499.306,714.792 500.869,713.409 503.034,712.986L503.034,701.999L499.762,699.021ZM528.009,700.388L525.519,702.805L525.519,727.767L529.572,732.346L516.901,732.346L516.29,731.76L528.18,731.76L524.909,728.061L524.909,702.561L527.618,699.875L528.009,700.388Z" style="fill-rule:nonzero;"/>
        </g>
        <g transform="matrix(1.56994,0,0,1.93911,222.051,-890.05)">
            <path d="M549.493,704.465L549.078,704.221C547.516,703.358 546.084,702.927 544.782,702.927C540.501,702.927 538.361,707.134 538.361,715.549C538.361,721.701 539.687,725.779 542.34,727.78L542.12,728.025C540.493,726.869 539.333,725.351 538.641,723.471C537.95,721.591 537.604,719.048 537.604,715.842C537.604,706.809 539.98,702.292 544.733,702.292C546.897,702.292 548.484,703.016 549.493,704.465ZM544.269,698.703C548.224,698.703 551.386,700.201 553.754,703.195C556.122,706.19 557.306,710.194 557.306,715.207C557.306,719.944 556.138,723.72 553.803,726.535C551.467,729.351 548.33,730.759 544.391,730.759C541.282,730.759 538.515,729.766 536.09,727.78C532.526,724.851 530.743,720.513 530.743,714.768C530.743,709.852 531.964,705.946 534.406,703.049C536.847,700.152 540.135,698.703 544.269,698.703ZM544.269,700.803C538.768,700.803 536.017,705.637 536.017,715.305C536.017,724.24 538.727,728.708 544.147,728.708C546.67,728.708 548.59,727.524 549.909,725.156C551.227,722.788 551.886,719.325 551.886,714.768C551.886,709.608 551.251,706.011 549.982,703.977C548.647,701.861 546.743,700.803 544.269,700.803ZM552.057,699.948C554.384,701.071 556.224,702.992 557.575,705.71C558.925,708.428 559.601,711.57 559.601,715.134C559.601,720.375 558.27,724.607 555.609,727.829C552.948,731.052 549.453,732.663 545.123,732.663C542.356,732.663 539.769,731.727 537.36,729.856L537.36,729.734C539.378,731.215 541.909,731.955 544.952,731.955C549.038,731.955 552.391,730.417 555.011,727.341C557.631,724.265 558.942,720.334 558.942,715.549C558.942,711.985 558.344,708.868 557.147,706.198C555.951,703.529 554.254,701.535 552.057,700.217L552.057,699.948Z" style="fill-rule:nonzero;"/>
        </g>
        <g transform="matrix(1.56994,0,0,1.93911,222.051,-890.05)">
            <path d="M563.141,699.021L574.103,699.021C578.758,699.021 582.07,699.664 584.039,700.949C586.546,702.561 587.799,704.799 587.799,707.663C587.799,709.405 587.319,710.918 586.359,712.204C585.398,713.49 584.056,714.418 582.33,714.987C580.605,715.557 577.863,715.842 574.103,715.842L571.1,715.842L571.1,727.658L574.078,730.344L562.726,730.344L566.119,727.487L566.119,717.697C565.924,717.681 565.786,717.673 565.704,717.673C564.533,717.673 563.409,717.925 562.335,718.43L562.116,717.99C563.206,717.372 564.183,717.063 565.045,717.063L565.924,717.063L566.119,717.038L566.119,715.842C565.745,715.793 565.493,715.769 565.363,715.769C563.621,715.769 562.229,716.192 561.188,717.038L560.944,716.672C561.937,714.849 563.532,713.938 565.729,713.938L566.119,713.938L566.119,701.76L563.141,699.021ZM571.1,701.217L571.1,713.767L571.417,713.767L572.052,713.791C572.117,713.791 572.223,713.783 572.369,713.767L572.369,702.878L575.055,702.878C577.138,702.878 578.607,703.061 579.462,703.427C580.316,703.794 581.045,704.555 581.647,705.71C581.045,704.88 580.292,704.298 579.388,703.965C578.485,703.631 577.212,703.464 575.568,703.464L573.053,703.464L573.053,713.767C576.276,713.767 578.64,713.282 580.145,712.311C581.651,711.341 582.404,709.819 582.404,707.745C582.404,705.42 581.732,703.731 580.389,702.677C579.047,701.623 576.886,701.096 573.908,701.096C573.143,701.096 572.207,701.136 571.1,701.217ZM586.554,701.633C587.547,702.122 588.344,702.982 588.947,704.213C589.549,705.443 589.85,706.841 589.85,708.406C589.85,711.943 588.483,714.486 585.748,716.035C583.681,717.208 580.149,717.795 575.153,717.795C574.323,717.795 573.623,717.779 573.053,717.747L573.053,727.865L576.886,732.346L564.655,732.346L563.995,731.76L575.494,731.76L572.369,728.134L572.369,717.086C573.785,717.168 575.291,717.209 576.886,717.209C581.085,717.209 584.202,716.467 586.237,714.984C588.271,713.501 589.288,711.227 589.288,708.162C589.288,706.89 589.093,705.786 588.702,704.848C588.312,703.911 587.596,702.839 586.554,701.633Z" style="fill-rule:nonzero;"/>
        </g>
        <g transform="matrix(1,0,0,1,135.482,234.801)">
            <path d="M749.226,164.91C749.226,164.91 669.052,269.298 798.729,290.283" style="fill:none;stroke:black;stroke-width:6.25px;"/>
        </g>
        <g transform="matrix(1,0,0,1,139.117,238.545)">
            <path d="M942.934,144.463C942.934,144.463 1060.24,158.454 1037.64,236.475" style="fill:none;stroke:black;stroke-width:6.25px;"/>
        </g>
        <g transform="matrix(1,0,0,1,-442.753,-390.557)">
            <path d="M1605.11,915.14L1613.18,959.531L1578.21,946.079" style="fill:none;stroke:black;stroke-width:6.25px;"/>
        </g>
    </g>
</svg>
