<?xml version="1.0" encoding="UTF-8" standalone="no"?>
<!DOCTYPE svg PUBLIC "-//W3C//DTD SVG 1.1//EN" "http://www.w3.org/Graphics/SVG/1.1/DTD/svg11.dtd">
<svg width="100%" height="100%" viewBox="0 0 131 119" version="1.1" xmlns="http://www.w3.org/2000/svg" xmlns:xlink="http://www.w3.org/1999/xlink" xml:space="preserve" xmlns:serif="http://www.serif.com/" style="fill-rule:evenodd;clip-rule:evenodd;stroke-linecap:round;stroke-linejoin:round;stroke-miterlimit:1.5;">
    <g transform="matrix(1,0,0,1,-739.173,-225.712)">
        <g transform="matrix(0.594623,0,0,0.594623,-140.288,-1238.29)">
            <path d="M1493.67,2650.38C1493.1,2651.45 1491.93,2652.07 1490.73,2651.95C1489.52,2651.83 1488.5,2650.99 1488.14,2649.83C1481.44,2625.4 1469.31,2544.2 1591.99,2514.26C1595.37,2513.44 1597.8,2510.47 1597.93,2506.99C1598.26,2498.92 1598.82,2484.44 1599.18,2475.38C1599.23,2473.96 1600.12,2472.71 1601.44,2472.18C1602.76,2471.66 1604.26,2471.95 1605.28,2472.94C1622.31,2489.48 1672,2537.74 1687.68,2552.97C1688.94,2554.18 1689.64,2555.86 1689.62,2557.61C1689.61,2559.36 1688.88,2561.02 1687.61,2562.22C1672.09,2576.84 1623.8,2622.35 1606.09,2639.04C1604.94,2640.13 1603.25,2640.43 1601.79,2639.82C1600.32,2639.2 1599.36,2637.78 1599.34,2636.19C1599.14,2625.32 1598.83,2607.5 1598.68,2599.04C1598.66,2597.77 1598.14,2596.57 1597.23,2595.7C1596.31,2594.83 1595.09,2594.35 1593.83,2594.38C1577.07,2595.18 1520.45,2601.49 1493.67,2650.38Z" style="fill:rgb(205,206,212);stroke:rgb(205,206,212);stroke-width:10.51px;"/>
        </g>
    </g>
</svg>
